<svg xmlns="http://www.w3.org/2000/svg" xmlns:xlink="http://www.w3.org/1999/xlink" width="480" zoomAndPan="magnify" viewBox="0 0 360 157.5" height="210" preserveAspectRatio="xMidYMid meet" version="1.0"><path fill="#ed1d24" d="M 26.625 141.957031 C 27.46875 141.957031 28.203125 141.8125 28.898438 141.589844 C 29.632812 141.332031 30.257812 140.96875 30.734375 140.527344 C 31.285156 140.050781 31.648438 139.5 31.980469 138.839844 C 32.238281 138.179688 32.382812 137.410156 32.382812 136.566406 C 32.382812 134.84375 31.90625 133.484375 30.878906 132.566406 C 29.925781 131.652344 28.457031 131.210938 26.589844 131.210938 L 24.019531 131.210938 L 24.019531 141.957031 Z M 30.734375 128.203125 C 31.945312 128.679688 32.972656 129.265625 33.816406 130.074219 C 34.660156 130.882812 35.320312 131.835938 35.757812 132.933594 C 36.234375 134.035156 36.457031 135.246094 36.457031 136.566406 C 36.457031 137.886719 36.199219 139.058594 35.722656 140.195312 C 35.28125 141.296875 34.621094 142.25 33.742188 143.058594 C 32.898438 143.828125 31.871094 144.453125 30.625 144.929688 C 29.449219 145.367188 28.054688 145.589844 26.589844 145.589844 L 20.023438 145.589844 L 20.023438 127.542969 L 26.660156 127.542969 C 28.164062 127.542969 29.523438 127.761719 30.734375 128.203125 Z M 30.734375 128.203125 " fill-opacity="1" fill-rule="nonzero"/><path fill="#ed1d24" d="M 47.679688 136.640625 C 48.671875 136.640625 49.441406 136.382812 49.992188 135.90625 C 50.578125 135.429688 50.871094 134.730469 50.871094 133.886719 C 50.871094 133.007812 50.617188 132.347656 50.066406 131.871094 C 49.515625 131.394531 48.78125 131.175781 47.789062 131.175781 L 43.867188 131.175781 L 43.867188 136.640625 Z M 50.835938 127.984375 C 51.679688 128.277344 52.414062 128.679688 53.074219 129.230469 C 53.660156 129.78125 54.136719 130.402344 54.503906 131.175781 C 54.832031 131.90625 55.015625 132.75 55.015625 133.707031 C 55.015625 134.914062 54.6875 136.050781 54.027344 136.96875 C 53.402344 137.921875 52.484375 138.65625 51.3125 139.132812 L 55.714844 145.589844 L 50.796875 145.589844 L 47.496094 140.195312 L 43.867188 140.195312 L 43.867188 145.589844 L 39.832031 145.589844 L 39.832031 127.542969 L 47.972656 127.542969 C 49.039062 127.542969 49.992188 127.691406 50.835938 127.984375 Z M 50.835938 127.984375 " fill-opacity="1" fill-rule="nonzero"/><path fill="#ed1d24" d="M 58.867188 127.542969 L 62.902344 127.542969 L 62.902344 145.589844 L 58.867188 145.589844 Z M 58.867188 127.542969 " fill-opacity="1" fill-rule="nonzero"/><path fill="#ed1d24" d="M 75.484375 141.515625 L 75.742188 141.515625 L 80.363281 127.542969 L 85.023438 127.542969 L 77.871094 145.660156 L 73.101562 145.660156 L 65.910156 127.542969 L 70.644531 127.542969 Z M 75.484375 141.515625 " fill-opacity="1" fill-rule="nonzero"/><path fill="#ed1d24" d="M 101.496094 131.175781 L 91.992188 131.175781 L 91.992188 134.585938 L 100.46875 134.585938 L 100.46875 138.105469 L 91.992188 138.105469 L 91.992188 141.957031 L 101.972656 141.957031 L 101.972656 145.589844 L 88.03125 145.589844 L 88.03125 127.542969 L 101.496094 127.542969 Z M 101.496094 131.175781 " fill-opacity="1" fill-rule="nonzero"/><path fill="#ed1d24" d="M 129.078125 131.210938 L 122.917969 131.210938 L 122.917969 145.589844 L 118.917969 145.589844 L 118.917969 131.210938 L 112.757812 131.210938 L 112.757812 127.542969 L 129.078125 127.542969 Z M 129.078125 131.210938 " fill-opacity="1" fill-rule="nonzero"/><path fill="#ed1d24" d="M 145.84375 131.175781 L 136.34375 131.175781 L 136.34375 134.585938 L 144.816406 134.585938 L 144.816406 138.105469 L 136.34375 138.105469 L 136.34375 141.957031 L 146.285156 141.957031 L 146.285156 145.589844 L 132.34375 145.589844 L 132.34375 127.542969 L 145.84375 127.542969 Z M 145.84375 131.175781 " fill-opacity="1" fill-rule="nonzero"/><path fill="#ed1d24" d="M 161.25 131.320312 C 160.445312 130.992188 159.527344 130.882812 158.535156 130.882812 C 157.65625 130.882812 156.847656 130.992188 156.152344 131.285156 C 155.417969 131.578125 154.832031 131.945312 154.316406 132.457031 C 153.804688 133.007812 153.4375 133.59375 153.179688 134.292969 C 152.886719 134.988281 152.777344 135.757812 152.777344 136.566406 C 152.777344 137.445312 152.886719 138.214844 153.179688 138.914062 C 153.472656 139.609375 153.839844 140.195312 154.355469 140.671875 C 154.867188 141.1875 155.453125 141.589844 156.152344 141.882812 C 156.847656 142.140625 157.65625 142.289062 158.460938 142.289062 C 159.488281 142.289062 160.445312 142.105469 161.359375 141.773438 C 162.203125 141.40625 163.011719 140.894531 163.707031 140.234375 L 166.019531 143.058594 C 163.964844 145 161.398438 145.953125 158.242188 145.953125 C 156.847656 145.953125 155.566406 145.734375 154.425781 145.332031 C 153.253906 144.855469 152.261719 144.230469 151.382812 143.425781 C 150.574219 142.617188 149.914062 141.628906 149.476562 140.492188 C 149 139.316406 148.742188 138.070312 148.742188 136.640625 C 148.742188 135.355469 148.960938 134.109375 149.476562 132.972656 C 149.878906 131.796875 150.574219 130.808594 151.417969 129.964844 C 152.300781 129.082031 153.328125 128.421875 154.539062 127.945312 C 155.75 127.433594 157.140625 127.175781 158.683594 127.175781 C 160.078125 127.175781 161.398438 127.398438 162.535156 127.835938 C 163.707031 128.242188 164.734375 128.863281 165.652344 129.671875 L 163.414062 132.605469 C 162.792969 132.019531 162.09375 131.613281 161.25 131.320312 Z M 161.25 131.320312 " fill-opacity="1" fill-rule="nonzero"/><path fill="#ed1d24" d="M 173.355469 134.621094 L 181.242188 134.621094 L 181.242188 127.542969 L 185.316406 127.542969 L 185.316406 145.589844 L 181.242188 145.589844 L 181.242188 138.363281 L 173.355469 138.363281 L 173.355469 145.589844 L 169.285156 145.589844 L 169.285156 127.542969 L 173.355469 127.542969 Z M 173.355469 134.621094 " fill-opacity="1" fill-rule="nonzero"/><path fill="#ed1d24" d="M 205.785156 145.589844 L 201.75 145.589844 L 193.421875 134.070312 L 193.421875 145.589844 L 189.496094 145.589844 L 189.496094 127.542969 L 193.128906 127.542969 L 201.894531 139.71875 L 201.894531 127.542969 L 205.785156 127.542969 Z M 205.785156 145.589844 " fill-opacity="1" fill-rule="nonzero"/><path fill="#ed1d24" d="M 216.386719 131.246094 C 215.726562 131.542969 215.101562 131.980469 214.660156 132.496094 C 214.183594 133.007812 213.816406 133.632812 213.558594 134.328125 C 213.304688 135.027344 213.195312 135.757812 213.195312 136.566406 C 213.195312 137.371094 213.304688 138.144531 213.558594 138.875 C 213.816406 139.574219 214.183594 140.195312 214.660156 140.710938 C 215.136719 141.1875 215.726562 141.589844 216.421875 141.921875 C 217.082031 142.214844 217.851562 142.359375 218.734375 142.359375 C 219.613281 142.359375 220.382812 142.214844 221.082031 141.921875 C 221.777344 141.589844 222.363281 141.1875 222.839844 140.636719 C 223.316406 140.125 223.648438 139.5 223.90625 138.804688 C 224.125 138.105469 224.273438 137.371094 224.273438 136.566406 C 224.273438 135.757812 224.125 134.988281 223.90625 134.292969 C 223.648438 133.558594 223.28125 132.933594 222.804688 132.421875 C 222.328125 131.90625 221.742188 131.503906 221.082031 131.210938 C 220.382812 130.917969 219.578125 130.808594 218.734375 130.808594 C 217.851562 130.808594 217.082031 130.953125 216.386719 131.246094 Z M 222.621094 127.875 C 223.792969 128.351562 224.820312 129.046875 225.628906 129.890625 C 226.507812 130.699219 227.132812 131.722656 227.609375 132.824219 C 228.050781 134 228.308594 135.246094 228.308594 136.566406 C 228.308594 137.847656 228.050781 139.058594 227.609375 140.195312 C 227.132812 141.371094 226.472656 142.359375 225.628906 143.203125 C 224.820312 144.046875 223.792969 144.746094 222.621094 145.222656 C 221.445312 145.734375 220.164062 145.953125 218.734375 145.953125 C 217.339844 145.953125 216.019531 145.734375 214.882812 145.257812 C 213.707031 144.78125 212.679688 144.121094 211.871094 143.277344 C 210.992188 142.433594 210.332031 141.445312 209.855469 140.308594 C 209.414062 139.132812 209.160156 137.886719 209.160156 136.566406 C 209.160156 135.28125 209.414062 134.070312 209.855469 132.898438 C 210.332031 131.761719 210.992188 130.769531 211.871094 129.925781 C 212.679688 129.082031 213.707031 128.421875 214.882812 127.945312 C 216.019531 127.433594 217.339844 127.175781 218.734375 127.175781 C 220.164062 127.175781 221.445312 127.433594 222.621094 127.875 Z M 222.621094 127.875 " fill-opacity="1" fill-rule="nonzero"/><path fill="#ed1d24" d="M 235.71875 141.921875 L 245.472656 141.921875 L 245.472656 145.589844 L 231.683594 145.589844 L 231.683594 127.542969 L 235.71875 127.542969 Z M 235.71875 141.921875 " fill-opacity="1" fill-rule="nonzero"/><path fill="#ed1d24" d="M 254.535156 131.246094 C 253.875 131.542969 253.289062 131.980469 252.8125 132.496094 C 252.335938 133.007812 251.96875 133.632812 251.710938 134.328125 C 251.492188 135.027344 251.34375 135.757812 251.34375 136.566406 C 251.34375 137.371094 251.492188 138.144531 251.710938 138.875 C 251.96875 139.574219 252.335938 140.195312 252.8125 140.710938 C 253.289062 141.1875 253.910156 141.589844 254.570312 141.921875 C 255.230469 142.214844 256.039062 142.359375 256.882812 142.359375 C 257.761719 142.359375 258.570312 142.214844 259.230469 141.921875 C 259.925781 141.589844 260.515625 141.1875 260.992188 140.636719 C 261.46875 140.125 261.796875 139.5 262.089844 138.804688 C 262.3125 138.105469 262.421875 137.371094 262.421875 136.566406 C 262.421875 135.757812 262.3125 134.988281 262.054688 134.292969 C 261.796875 133.558594 261.429688 132.933594 260.953125 132.421875 C 260.476562 131.90625 259.890625 131.503906 259.230469 131.210938 C 258.535156 130.917969 257.761719 130.808594 256.882812 130.808594 C 256.039062 130.808594 255.230469 130.953125 254.535156 131.246094 Z M 260.769531 127.875 C 261.980469 128.351562 263.007812 129.046875 263.816406 129.890625 C 264.660156 130.699219 265.320312 131.722656 265.761719 132.824219 C 266.238281 134 266.457031 135.246094 266.457031 136.566406 C 266.457031 137.847656 266.238281 139.058594 265.761719 140.195312 C 265.320312 141.371094 264.621094 142.359375 263.816406 143.203125 C 262.972656 144.046875 261.945312 144.746094 260.769531 145.222656 C 259.597656 145.734375 258.3125 145.953125 256.882812 145.953125 C 255.488281 145.953125 254.203125 145.734375 253.03125 145.257812 C 251.894531 144.78125 250.867188 144.121094 250.023438 143.277344 C 249.144531 142.433594 248.484375 141.445312 248.042969 140.308594 C 247.566406 139.132812 247.34375 137.886719 247.34375 136.566406 C 247.34375 135.28125 247.566406 134.070312 248.042969 132.898438 C 248.484375 131.761719 249.144531 130.769531 250.023438 129.925781 C 250.867188 129.082031 251.894531 128.421875 253.03125 127.945312 C 254.203125 127.433594 255.488281 127.175781 256.882812 127.175781 C 258.3125 127.175781 259.597656 127.433594 260.769531 127.875 Z M 260.769531 127.875 " fill-opacity="1" fill-rule="nonzero"/><path fill="#ed1d24" d="M 286.230469 143.609375 C 285.238281 144.414062 284.101562 145.039062 282.890625 145.40625 C 281.679688 145.773438 280.359375 145.953125 278.964844 145.953125 C 277.535156 145.953125 276.214844 145.734375 275.003906 145.332031 C 273.832031 144.890625 272.804688 144.269531 271.996094 143.460938 C 271.152344 142.652344 270.457031 141.699219 270.015625 140.527344 C 269.574219 139.390625 269.316406 138.070312 269.316406 136.640625 C 269.316406 135.355469 269.539062 134.109375 270.015625 133.007812 C 270.457031 131.835938 271.117188 130.84375 271.960938 129.964844 C 272.804688 129.121094 273.867188 128.460938 275.078125 127.945312 C 276.289062 127.433594 277.683594 127.175781 279.222656 127.175781 C 280.578125 127.175781 281.789062 127.398438 283 127.800781 C 284.101562 128.203125 285.164062 128.828125 286.082031 129.671875 L 283.808594 132.566406 C 283.222656 132.019531 282.488281 131.578125 281.679688 131.285156 C 280.910156 130.992188 280.03125 130.882812 279.074219 130.882812 C 278.230469 130.882812 277.460938 130.992188 276.726562 131.285156 C 276.03125 131.542969 275.445312 131.90625 274.929688 132.421875 C 274.417969 132.933594 274.015625 133.523438 273.71875 134.21875 C 273.464844 134.953125 273.316406 135.722656 273.316406 136.566406 C 273.316406 137.445312 273.464844 138.253906 273.757812 138.988281 C 274.050781 139.683594 274.417969 140.269531 274.96875 140.746094 C 275.445312 141.261719 276.066406 141.628906 276.765625 141.882812 C 277.460938 142.140625 278.230469 142.289062 279.074219 142.289062 C 280.359375 142.289062 281.460938 142.03125 282.414062 141.589844 L 282.414062 138.839844 L 279.222656 138.65625 L 279.222656 135.28125 L 286.230469 135.28125 Z M 286.230469 143.609375 " fill-opacity="1" fill-rule="nonzero"/><path fill="#ed1d24" d="M 289.972656 127.542969 L 294.042969 127.542969 L 294.042969 145.589844 L 289.972656 145.589844 Z M 289.972656 127.542969 " fill-opacity="1" fill-rule="nonzero"/><path fill="#ed1d24" d="M 311.761719 131.175781 L 302.257812 131.175781 L 302.257812 134.585938 L 310.734375 134.585938 L 310.734375 138.105469 L 302.257812 138.105469 L 302.257812 141.957031 L 312.199219 141.957031 L 312.199219 145.589844 L 298.261719 145.589844 L 298.261719 127.542969 L 311.761719 127.542969 Z M 311.761719 131.175781 " fill-opacity="1" fill-rule="nonzero"/><path fill="#ed1d24" d="M 325.222656 131.175781 C 324.304688 130.882812 323.390625 130.769531 322.472656 130.769531 C 321.296875 130.769531 320.453125 130.917969 319.941406 131.210938 C 319.425781 131.542969 319.171875 131.980469 319.171875 132.53125 C 319.171875 133.046875 319.355469 133.449219 319.757812 133.707031 C 320.125 133.960938 320.710938 134.144531 321.554688 134.253906 L 324.195312 134.621094 C 326.140625 134.878906 327.644531 135.464844 328.632812 136.457031 C 329.589844 137.371094 330.066406 138.582031 330.066406 140.125 C 330.066406 141.003906 329.917969 141.8125 329.550781 142.507812 C 329.222656 143.242188 328.746094 143.863281 328.085938 144.339844 C 327.425781 144.890625 326.617188 145.257812 325.625 145.550781 C 324.636719 145.84375 323.535156 145.953125 322.289062 145.953125 C 320.785156 145.953125 319.425781 145.808594 318.214844 145.515625 C 317.007812 145.222656 315.796875 144.671875 314.621094 143.902344 L 316.34375 140.601562 C 317.335938 141.1875 318.363281 141.664062 319.355469 141.921875 C 320.34375 142.214844 321.40625 142.324219 322.507812 142.324219 C 323.71875 142.324219 324.597656 142.140625 325.1875 141.8125 C 325.738281 141.445312 326.03125 140.96875 326.03125 140.34375 C 326.03125 139.832031 325.847656 139.390625 325.441406 139.097656 C 325.039062 138.804688 324.414062 138.582031 323.5 138.472656 L 320.710938 138.105469 C 318.949219 137.847656 317.59375 137.335938 316.640625 136.457031 C 315.648438 135.613281 315.171875 134.367188 315.171875 132.714844 C 315.171875 131.835938 315.320312 131.027344 315.722656 130.367188 C 316.015625 129.671875 316.527344 129.082031 317.152344 128.605469 C 317.777344 128.167969 318.546875 127.761719 319.425781 127.542969 C 320.34375 127.285156 321.296875 127.175781 322.398438 127.175781 C 323.828125 127.175781 325.1875 127.359375 326.398438 127.761719 C 327.605469 128.128906 328.671875 128.679688 329.589844 129.488281 L 327.605469 132.347656 C 326.875 131.835938 326.101562 131.429688 325.222656 131.175781 Z M 325.222656 131.175781 " fill-opacity="1" fill-rule="nonzero"/><path fill="#ed1d24" d="M 337.546875 21.476562 C 339.234375 21.476562 340.703125 21.292969 340.703125 19.347656 C 340.703125 17.660156 339.050781 17.476562 337.730469 17.476562 L 335.054688 17.476562 L 335.054688 21.476562 Z M 335.054688 29.175781 L 332.816406 29.175781 L 332.816406 15.605469 L 337.988281 15.605469 C 341.253906 15.605469 342.941406 16.742188 342.941406 19.496094 C 342.941406 21.953125 341.398438 22.980469 339.382812 23.199219 L 343.199219 29.175781 L 340.667969 29.175781 L 337.144531 23.382812 L 335.054688 23.382812 Z M 337.476562 12.011719 C 332.121094 12.011719 328.011719 16.195312 328.011719 22.171875 C 328.011719 27.746094 331.640625 32.292969 337.476562 32.292969 C 342.757812 32.292969 346.867188 28.148438 346.867188 22.171875 C 346.867188 16.195312 342.757812 12.011719 337.476562 12.011719 Z M 337.476562 34.421875 C 330.433594 34.421875 325.40625 29.140625 325.40625 22.171875 C 325.40625 14.800781 330.980469 9.886719 337.476562 9.886719 C 343.929688 9.886719 349.507812 14.800781 349.507812 22.171875 C 349.507812 29.507812 343.929688 34.421875 337.476562 34.421875 Z M 337.476562 34.421875 " fill-opacity="1" fill-rule="nonzero"/><path fill="#ed1d24" d="M 44.527344 114.851562 L 19.949219 114.851562 L 19.949219 9.886719 L 81.355469 9.886719 C 98.488281 9.886719 112.425781 23.824219 112.425781 40.949219 L 112.425781 50.558594 C 112.425781 67.722656 98.488281 81.660156 81.355469 81.660156 L 67.855469 81.660156 L 47.496094 57.089844 L 81.355469 57.089844 C 84.949219 57.089844 87.886719 54.191406 87.886719 50.558594 L 87.886719 40.949219 C 87.886719 37.355469 84.949219 34.421875 81.355469 34.421875 L 44.527344 34.421875 Z M 44.527344 114.851562 " fill-opacity="1" fill-rule="nonzero"/><path fill="#ed1d24" d="M 189.386719 114.890625 L 150.941406 114.890625 C 133.8125 114.890625 119.835938 100.953125 119.835938 83.789062 L 119.835938 40.949219 C 119.835938 23.824219 133.8125 9.886719 150.941406 9.886719 L 220.492188 9.886719 L 220.492188 34.421875 L 150.941406 34.421875 C 147.347656 34.421875 144.414062 37.355469 144.414062 40.949219 L 144.414062 83.789062 C 144.414062 87.382812 147.347656 90.316406 150.941406 90.316406 L 189.386719 90.316406 C 192.980469 90.316406 195.914062 87.382812 195.914062 83.789062 L 195.914062 74.800781 L 165.871094 57.308594 L 220.457031 57.308594 L 220.457031 83.789062 C 220.457031 100.953125 206.515625 114.890625 189.386719 114.890625 Z M 189.386719 114.890625 " fill-opacity="1" fill-rule="nonzero"/><path fill="#ed1d24" d="M 289.53125 57.089844 L 254.644531 57.089844 L 301.710938 114.816406 L 330.835938 114.816406 L 301.011719 78.324219 C 314.546875 75.460938 320.636719 64.386719 320.636719 52.285156 L 320.636719 40.949219 C 320.636719 23.824219 306.699219 9.886719 289.53125 9.886719 L 228.160156 9.886719 L 228.160156 114.851562 L 252.699219 114.851562 L 252.699219 34.421875 L 289.53125 34.421875 C 293.125 34.421875 296.058594 37.355469 296.058594 40.949219 L 296.058594 50.558594 C 296.058594 54.191406 293.125 57.089844 289.53125 57.089844 Z M 289.53125 57.089844 " fill-opacity="1" fill-rule="nonzero"/></svg>